<?xml version="1.0" encoding="UTF-8" standalone="no"?>
<!-- Generator: Adobe Illustrator 19.0.0, SVG Export Plug-In . SVG Version: 6.00 Build 0)  -->

<svg
   xmlns:dc="http://purl.org/dc/elements/1.1/"
   xmlns:cc="http://creativecommons.org/ns#"
   xmlns:rdf="http://www.w3.org/1999/02/22-rdf-syntax-ns#"
   xmlns:svg="http://www.w3.org/2000/svg"
   xmlns="http://www.w3.org/2000/svg"
   xmlns:sodipodi="http://sodipodi.sourceforge.net/DTD/sodipodi-0.dtd"
   xmlns:inkscape="http://www.inkscape.org/namespaces/inkscape"
   version="1.1"
   id="Layer_1"
   x="0px"
   y="0px"
   viewBox="0 0 234.56242 92.630507"
   xml:space="preserve"
   inkscape:version="0.91 r13725"
   sodipodi:docname="line.svg"
   width="234.56242"
   height="92.630508"><metadata
     id="metadata61"><rdf:RDF><cc:Work
         rdf:about=""><dc:format>image/svg+xml</dc:format><dc:type
           rdf:resource="" /><dc:title></dc:title></cc:Work></rdf:RDF></metadata><defs
     id="defs59" /><sodipodi:namedview
     pagecolor="#ffffff"
     bordercolor="#666666"
     borderopacity="1"
     objecttolerance="10"
     gridtolerance="10"
     guidetolerance="10"
     inkscape:pageopacity="0"
     inkscape:pageshadow="2"
     inkscape:window-width="1920"
     inkscape:window-height="1030"
     id="namedview57"
     showgrid="false"
     fit-margin-top="0"
     fit-margin-left="0"
     fit-margin-right="0"
     fit-margin-bottom="0"
     inkscape:zoom="2.6915677"
     inkscape:cx="63.078637"
     inkscape:cy="63.224106"
     inkscape:window-x="0"
     inkscape:window-y="0"
     inkscape:window-maximized="1"
     inkscape:current-layer="Layer_1" /><path
     style="color:#000000;clip-rule:nonzero;display:inline;overflow:visible;visibility:visible;opacity:1;isolation:auto;mix-blend-mode:normal;color-interpolation:sRGB;color-interpolation-filters:linearRGB;solid-color:#000000;solid-opacity:1;fill:#000000;fill-opacity:1;fill-rule:nonzero;stroke-width:1.70000005;stroke-linecap:butt;stroke-linejoin:miter;stroke-miterlimit:4;stroke-dasharray:1.7, 1.7;stroke-dashoffset:0;stroke-opacity:1;color-rendering:auto;image-rendering:auto;shape-rendering:auto;text-rendering:auto;enable-background:accumulate"
     d="m 16,56.261016 a 16,16 0 0 0 -16,16 A 16,16 0 0 0 16,88.261017 16,16 0 0 0 31.999998,72.261016 16,16 0 0 0 16,56.261016 Z m -0.123432,11.321875 a 4.8,4.8 0 0 1 4.8,4.8 4.8,4.8 0 0 1 -4.8,4.8 4.8,4.8 0 0 1 -4.8,-4.8 4.8,4.8 0 0 1 4.8,-4.8 z"
     id="path4196"
     inkscape:connector-curvature="0" /><path
     style="color:#000000;clip-rule:nonzero;display:inline;overflow:visible;visibility:visible;opacity:1;isolation:auto;mix-blend-mode:normal;color-interpolation:sRGB;color-interpolation-filters:linearRGB;solid-color:#000000;solid-opacity:1;fill:#000000;fill-opacity:1;fill-rule:nonzero;stroke-width:1.70000005;stroke-linecap:butt;stroke-linejoin:miter;stroke-miterlimit:4;stroke-dasharray:1.7, 1.7;stroke-dashoffset:0;stroke-opacity:1;color-rendering:auto;image-rendering:auto;shape-rendering:auto;text-rendering:auto;enable-background:accumulate"
     d="m 111.376,22.379656 a 16,16 0 0 0 -16.000003,16 16,16 0 0 0 16.000003,16.000002 16,16 0 0 0 15.99999,-16.000002 16,16 0 0 0 -15.99999,-16 z m -0.12344,11.32188 a 4.8,4.8 0 0 1 4.8,4.8 4.8,4.8 0 0 1 -4.8,4.799998 4.8,4.8 0 0 1 -4.8,-4.799998 4.8,4.8 0 0 1 4.8,-4.8 z"
     id="path4196-3"
     inkscape:connector-curvature="0" /><path
     style="color:#000000;clip-rule:nonzero;display:inline;overflow:visible;visibility:visible;opacity:1;isolation:auto;mix-blend-mode:normal;color-interpolation:sRGB;color-interpolation-filters:linearRGB;solid-color:#000000;solid-opacity:1;fill:#000000;fill-opacity:1;fill-rule:nonzero;stroke-width:1.70000005;stroke-linecap:butt;stroke-linejoin:miter;stroke-miterlimit:4;stroke-dasharray:1.7, 1.7;stroke-dashoffset:0;stroke-opacity:1;color-rendering:auto;image-rendering:auto;shape-rendering:auto;text-rendering:auto;enable-background:accumulate"
     d="m 173.16582,60.63051 a 16,16 0 0 0 -16,15.999996 16,16 0 0 0 16,16.000001 16,16 0 0 0 16,-16.000001 16,16 0 0 0 -16,-15.999996 z m -0.12343,11.321872 a 4.8,4.8 0 0 1 4.8,4.8 4.8,4.8 0 0 1 -4.8,4.800002 4.8,4.8 0 0 1 -4.8,-4.800002 4.8,4.8 0 0 1 4.8,-4.8 z"
     id="path4196-6"
     inkscape:connector-curvature="0" /><path
     style="color:#000000;clip-rule:nonzero;display:inline;overflow:visible;visibility:visible;opacity:1;isolation:auto;mix-blend-mode:normal;color-interpolation:sRGB;color-interpolation-filters:linearRGB;solid-color:#000000;solid-opacity:1;fill:#000000;fill-opacity:1;fill-rule:nonzero;stroke-width:1.70000005;stroke-linecap:butt;stroke-linejoin:miter;stroke-miterlimit:4;stroke-dasharray:1.7, 1.7;stroke-dashoffset:0;stroke-opacity:1;color-rendering:auto;image-rendering:auto;shape-rendering:auto;text-rendering:auto;enable-background:accumulate"
     d="m 218.56243,0 a 16,16 0 0 0 -16,16 16,16 0 0 0 16,16 16,16 0 0 0 16,-16 16,16 0 0 0 -16,-16 z M 218.439,11.321872 a 4.8,4.8 0 0 1 4.8,4.8 4.8,4.8 0 0 1 -4.8,4.8 4.8,4.8 0 0 1 -4.8,-4.8 4.8,4.8 0 0 1 4.8,-4.8 z"
     id="path4196-7"
     inkscape:connector-curvature="0" /><path
     style="fill:none;fill-rule:evenodd;stroke:#000000;stroke-width:11.19999981px;stroke-linecap:butt;stroke-linejoin:miter;stroke-opacity:1"
     d="M 24.653174,68.418097 103.78186,41.35576"
     id="path4232"
     inkscape:connector-curvature="0" /><path
     style="fill:none;fill-rule:evenodd;stroke:#000000;stroke-width:11.19999981px;stroke-linecap:butt;stroke-linejoin:miter;stroke-opacity:1"
     d="m 117.64828,43.142844 48.45396,30.813134"
     id="path4232-5"
     inkscape:connector-curvature="0" /><path
     style="fill:none;fill-rule:evenodd;stroke:#000000;stroke-width:11.19999981px;stroke-linecap:butt;stroke-linejoin:miter;stroke-opacity:1"
     d="M 181.57461,68.453755 214.66288,21.894864"
     id="path4232-3"
     inkscape:connector-curvature="0" /></svg>